HIERARCHY
ROOT Hips
{
 OFFSET 0.000000 0.000000 0.000000
 CHANNELS 6 Xposition Yposition Zposition Yrotation Xrotation Zrotation
 JOINT Chest
 {
  OFFSET 0.000000 9.588913 -0.003946
  CHANNELS 3 Yrotation Xrotation Zrotation
  JOINT Chest2
  {
   OFFSET 0.000000 9.541882 0.008053
   CHANNELS 3 Yrotation Xrotation Zrotation
   JOINT Chest3
   {
    OFFSET 0.000000 9.501360 0.000000
    CHANNELS 3 Yrotation Xrotation Zrotation
    JOINT Chest4
    {
     OFFSET 0.000000 9.491660 0.000000
     CHANNELS 3 Yrotation Xrotation Zrotation
     JOINT Neck
     {
      OFFSET 0.000000 14.331917 0.000000
      CHANNELS 3 Yrotation Xrotation Zrotation
      JOINT Head
      {
       OFFSET 0.000000 8.884799 0.017034
       CHANNELS 3 Yrotation Xrotation Zrotation
       End Site
       {
        OFFSET 0.000000 16.896195 0.008993
       }
      }
     }
     JOINT RightCollar
     {
      OFFSET -2.923010 9.499495 0.000000
      CHANNELS 3 Yrotation Xrotation Zrotation
      JOINT RightShoulder
      {
       OFFSET -13.795216 0.000000 0.000000
       CHANNELS 3 Yrotation Xrotation Zrotation
       JOINT RightElbow
       {
        OFFSET -30.272209 0.000000 0.000000
        CHANNELS 3 Yrotation Xrotation Zrotation
        JOINT RightWrist
        {
         OFFSET -24.478199 0.000000 0.000000
         CHANNELS 3 Yrotation Xrotation Zrotation
         End Site
         {
          OFFSET -18.090752 0.000000 0.000000
         }
        }
       }
      }
     }
     JOINT LeftCollar
     {
      OFFSET 2.923010 9.499495 0.000000
      CHANNELS 3 Yrotation Xrotation Zrotation
      JOINT LeftShoulder
      {
       OFFSET 13.795216 0.000000 0.000000
       CHANNELS 3 Yrotation Xrotation Zrotation
       JOINT LeftElbow
       {
        OFFSET 30.272209 0.000000 0.000000
        CHANNELS 3 Yrotation Xrotation Zrotation
        JOINT LeftWrist
        {
         OFFSET 24.478199 0.000000 0.000000
         CHANNELS 3 Yrotation Xrotation Zrotation
         End Site
         {
          OFFSET 18.090752 0.000000 0.000000
         }
        }
       }
      }
     }
    }
   }
  }
 }
 JOINT RightHip
 {
  OFFSET -7.826875 0.019532 0.001973
  CHANNELS 3 Yrotation Xrotation Zrotation
  JOINT RightKnee
  {
   OFFSET 0.000000 -40.546152 -0.001885
   CHANNELS 3 Yrotation Xrotation Zrotation
   JOINT RightAnkle
   {
    OFFSET 0.000000 -39.417092 -0.003189
    CHANNELS 3 Yrotation Xrotation Zrotation
    JOINT RightToe
    {
     OFFSET 0.000000 -7.579396 17.243563
     CHANNELS 3 Yrotation Xrotation Zrotation
     End Site
     {
      OFFSET 0.000000 -1.500329 6.694466
     }
    }
   }
  }
 }
 JOINT LeftHip
 {
  OFFSET 7.826875 0.019532 0.001973
  CHANNELS 3 Yrotation Xrotation Zrotation
  JOINT LeftKnee
  {
   OFFSET 0.000000 -40.546152 -0.001885
   CHANNELS 3 Yrotation Xrotation Zrotation
   JOINT LeftAnkle
   {
    OFFSET 0.000000 -39.417092 -0.003189
    CHANNELS 3 Yrotation Xrotation Zrotation
    JOINT LeftToe
    {
     OFFSET 0.000000 -7.579396 17.243563
     CHANNELS 3 Yrotation Xrotation Zrotation
     End Site
     {
      OFFSET 0.000000 -1.500329 6.694466
     }
    }
   }
  }
 }
}
MOTION
Frames: 16
Frame Time: 0.008333
0.000000 87.345680 0.000000 0.000000 -5.767889 0.000000 0.000000 11.653876 0.000000 0.000000 -5.885988 0.000000 0.000000 -0.000000 0.000000 0.000000 -0.000000 0.000000 0.000000 12.528808 0.000000 0.000000 0.711711 0.000000 0.000000 -0.000000 0.000000 0.000000 -0.000000 0.000000 2.309063 -0.000000 0.000000 -2.309063 -0.000000 -0.000000 0.000000 -0.000000 0.000000 0.000000 0.000000 0.000000 -2.309063 0.000000 0.000000 2.309063 -0.000000 0.000000 0.000000 8.520374 0.000000 0.000000 1.905768 0.000000 -0.000000 -4.658254 0.000000 0.000000 -0.000000 0.000000 0.000000 8.520374 0.000000 0.000000 1.905768 0.000000 -0.000000 -4.658254 0.000000 0.000000 -0.000000 0.000000
12.957691 88.676015 6.785109 44.318320 -8.454001 -1.450044 -0.538777 3.571454 1.102379 -0.350539 2.024920 0.867539 -0.433444 2.531958 1.082655 -0.350539 2.024919 0.867540 3.365087 19.763254 -3.191682 4.351612 -4.641578 -4.204896 -0.874097 -0.363038 -3.318508 6.810158 -7.490163 87.636352 6.710058 3.793859 2.103293 0.362847 -4.164899 -1.741193 -5.102212 0.127084 1.470544 7.189198 -2.351202 -90.088676 3.422934 -6.233820 3.807823 2.000536 -3.378886 1.129066 -4.652052 2.571111 -6.870904 -0.091359 14.814685 0.709985 4.052566 -7.742191 7.406638 0.044379 -0.385932 -0.392838 1.362297 8.546732 0.331003 -3.277325 7.585066 0.660474 2.712337 -8.769938 0.785371 0.026231 0.512143 -0.013320
12.958426 88.677992 6.782427 44.389623 -8.473883 -1.501956 -0.537152 3.596042 1.111377 -0.349733 2.039732 0.873058 -0.432371 2.550477 1.089547 -0.349733 2.039732 0.873058 3.198707 19.805090 -3.153123 4.161160 -4.604593 -4.122607 -0.878589 -0.340456 -3.314457 6.728042 -7.474094 87.806063 6.659001 3.692611 2.024189 0.371523 -4.173786 -1.741464 -5.101487 0.103316 1.465366 7.146228 -2.357590 -90.012429 3.343215 -6.172767 3.748223 1.996042 -3.376649 1.130796 -4.707297 2.549121 -6.788199 -0.100345 14.937205 0.704426 3.881957 -7.906411 7.541375 0.034520 -0.307172 -0.431402 1.328941 8.509823 0.374729 -3.295466 7.686897 0.655948 2.707408 -8.806664 0.798738 0.024028 0.516551 -0.016920
12.960033 88.681336 6.781914 44.462909 -8.491926 -1.547945 -0.537450 3.619077 1.120742 -0.349294 2.053062 0.875363 -0.431779 2.567139 1.092421 -0.349294 2.053062 0.875363 3.034244 19.846110 -3.111920 3.972501 -4.568217 -4.038097 -0.880282 -0.324373 -3.310901 6.646257 -7.442184 87.986226 6.608878 3.577008 1.944131 0.384661 -4.187795 -1.743166 -5.097347 0.076506 1.461623 7.116962 -2.365028 -89.932328 3.247546 -6.113919 3.680180 1.990533 -3.376023 1.135880 -4.778779 2.520674 -6.709366 -0.114353 15.077254 0.702791 3.736985 -8.114356 7.673754 0.025831 -0.217821 -0.471647 1.291375 8.477148 0.413687 -3.314888 7.778653 0.650313 2.704580 -8.834032 0.808971 0.023049 0.514880 -0.017730
12.961842 88.686545 6.785356 44.538804 -8.503866 -1.587794 -0.539702 3.638257 1.129028 -0.348985 2.063627 0.874245 -0.431374 2.580344 1.091017 -0.348985 2.063627 0.874245 2.872271 19.888484 -3.069037 3.786493 -4.529903 -3.952579 -0.881616 -0.310246 -3.307380 6.568605 -7.400211 88.172926 6.555142 3.462534 1.865977 0.399103 -4.200414 -1.740964 -5.091075 0.051990 1.459303 7.104517 -2.374892 -89.846962 3.135386 -6.055653 3.605068 1.981078 -3.378374 1.144041 -4.877118 2.483208 -6.642649 -0.126731 15.229844 0.717588 3.645768 -8.353807 7.788370 0.021004 -0.129219 -0.507823 1.248012 8.447089 0.449052 -3.330535 7.855868 0.643193 2.699339 -8.850740 0.817007 0.022636 0.507604 -0.017396
12.963184 88.694190 6.795266 44.616317 -8.510645 -1.626040 -0.543136 3.653824 1.139114 -0.348675 2.071537 0.870038 -0.430992 2.590227 1.085752 -0.348675 2.071537 0.870038 2.714495 19.934004 -3.025372 3.605197 -4.487492 -3.867451 -0.882939 -0.296970 -3.299782 6.509171 -7.360781 88.346695 6.485764 3.354205 1.799691 0.408440 -4.204582 -1.729956 -5.082657 0.029755 1.458472 7.111147 -2.385270 -89.754111 3.006890 -5.995698 3.519953 1.965991 -3.386382 1.155311 -5.001857 2.440957 -6.586623 -0.122155 15.387500 0.759164 3.614912 -8.602651 7.856895 0.021205 -0.055814 -0.522763 1.200961 8.421833 0.486589 -3.338215 7.918102 0.635820 2.688670 -8.859047 0.821756 0.022320 0.495682 -0.016626
12.963677 88.704739 6.813948 44.694344 -8.516429 -1.668135 -0.546754 3.667377 1.156589 -0.348101 2.077705 0.863244 -0.430298 2.597929 1.077258 -0.348101 2.077705 0.863245 2.561428 19.982956 -2.982276 3.429461 -4.440580 -3.784297 -0.886611 -0.284098 -3.289123 6.478650 -7.323638 88.503538 6.403122 3.259957 1.744356 0.406775 -4.199651 -1.712357 -5.073898 0.009003 1.456647 7.140070 -2.395562 -89.654272 2.862702 -5.929786 3.425712 1.944717 -3.397638 1.168510 -5.138258 2.404669 -6.530684 -0.082964 15.537288 0.825538 3.624299 -8.832350 7.858772 0.024959 -0.008895 -0.500734 1.155110 8.406005 0.531922 -3.343520 7.966790 0.631405 2.676171 -8.861802 0.820189 0.021633 0.479740 -0.015637
12.962933 88.718346 6.842485 44.773830 -8.522983 -1.717820 -0.550561 3.679431 1.186329 -0.347344 2.082536 0.854244 -0.429392 2.603959 1.066006 -0.347344 2.082536 0.854244 2.413728 20.034885 -2.940608 3.260158 -4.389635 -3.704184 -0.894153 -0.271642 -3.278576 6.472339 -7.284646 88.646784 6.309893 3.196806 1.696512 0.393962 -4.191193 -1.689928 -5.066645 -0.008149 1.452426 7.189298 -2.407380 -89.550994 2.703745 -5.860274 3.323597 1.918688 -3.409255 1.187174 -5.266160 2.383280 -6.462099 -0.001914 15.664994 0.906043 3.643906 -9.015222 7.776349 0.029893 0.007688 -0.426618 1.110072 8.402337 0.587645 -3.351064 8.000921 0.632651 2.667090 -8.859842 0.811136 0.019972 0.460764 -0.015437
12.959235 88.734900 6.882059 44.854374 -8.529157 -1.787195 -0.555849 3.687832 1.240784 -0.346426 2.086202 0.843167 -0.428300 2.608529 1.052160 -0.346426 2.086202 0.843167 2.273571 20.089964 -2.900741 3.099683 -4.334375 -3.628016 -0.901660 -0.260678 -3.268653 6.483075 -7.243902 88.774449 6.203036 3.171338 1.657642 0.372654 -4.179778 -1.662216 -5.060812 -0.021214 1.447859 7.253053 -2.420333 -89.445308 2.533257 -5.795856 3.211712 1.889818 -3.425756 1.211666 -5.361949 2.382518 -6.352931 0.099011 15.761264 0.979311 3.646725 -9.142390 7.582981 0.030925 0.006678 -0.281034 1.062776 8.411514 0.667387 -3.358720 8.011561 0.638620 2.664268 -8.819252 0.793077 0.017500 0.411919 -0.015667
12.957708 88.753967 6.927908 44.929658 -8.538838 -1.835289 -0.557842 3.694298 1.279875 -0.345173 2.089154 0.829745 -0.426803 2.612204 1.035384 -0.345173 2.089154 0.829745 2.140533 20.148168 -2.861760 2.947317 -4.274915 -3.554682 -0.910235 -0.253698 -3.258646 6.511501 -7.198066 88.887441 6.086170 3.178621 1.625782 0.345604 -4.164092 -1.630002 -5.059294 -0.032874 1.445720 7.328306 -2.433431 -89.335960 2.356518 -5.737863 3.090048 1.856865 -3.448208 1.237549 -5.412183 2.418536 -6.231916 0.181226 15.791553 1.011763 3.604111 -9.181718 7.301416 0.028716 -0.015081 -0.077004 1.008866 8.434069 0.724530 -3.363582 8.016132 0.649949 2.665882 -8.804309 0.769175 0.015261 0.384531 -0.015265
12.957792 88.775026 6.978879 45.005924 -8.547674 -1.863662 -0.558755 3.694455 1.305921 -0.344254 2.091078 0.813766 -0.425741 2.614592 1.015411 -0.344254 2.091078 0.813766 2.013117 20.209955 -2.822045 2.801023 -4.210881 -3.482054 -0.924229 -0.252103 -3.250042 6.560361 -7.144344 88.988677 5.963884 3.212716 1.598655 0.314679 -4.145263 -1.593741 -5.063014 -0.045186 1.444667 7.413469 -2.445617 -89.223869 2.178769 -5.680298 2.964107 1.818771 -3.470334 1.263945 -5.437118 2.496180 -6.092352 0.217523 15.740609 0.975653 3.500296 -9.155487 7.023977 0.017593 -0.031122 0.114896 0.942249 8.466840 0.761135 -3.367378 8.004054 0.663970 2.672082 -8.775022 0.741871 0.013142 0.348226 -0.015016
12.959497 88.797546 7.033391 45.082749 -8.552202 -1.869686 -0.559516 3.686752 1.314781 -0.344026 2.090595 0.795943 -0.425559 2.613972 0.993130 -0.344026 2.090595 0.795943 1.890855 20.276850 -2.779928 2.659886 -4.140627 -3.408224 -0.941870 -0.253402 -3.244654 6.622898 -7.082574 89.082967 5.839797 3.274043 1.577326 0.280085 -4.124132 -1.555494 -5.067104 -0.056142 1.441492 7.503940 -2.457144 -89.111371 2.003718 -5.620835 2.842715 1.778729 -3.490583 1.289723 -5.470020 2.610479 -5.952469 0.183191 15.605658 0.871250 3.372874 -9.070315 6.825139 -0.000407 -0.040092 0.238347 0.867390 8.505932 0.776052 -3.370659 7.974255 0.677640 2.678988 -8.730789 0.714372 0.011439 0.303805 -0.015208
12.961771 88.821136 7.091331 45.160222 -8.550581 -1.862250 -0.560940 3.672900 1.312062 -0.343931 2.086850 0.777208 -0.425555 2.609273 0.969711 -0.343931 2.086850 0.777208 1.771807 20.348532 -2.734629 2.521609 -4.064618 -3.331877 -0.962484 -0.257579 -3.240360 6.691008 -7.010405 89.172263 5.717875 3.362131 1.561971 0.244221 -4.100938 -1.516565 -5.069612 -0.064878 1.436860 7.592507 -2.472086 -89.001938 1.836165 -5.564325 2.732549 1.740697 -3.509810 1.312394 -5.546376 2.743851 -5.837193 0.064170 15.414073 0.742645 3.300580 -8.938114 6.674902 -0.015406 -0.050339 0.307092 0.791198 8.549401 0.781019 -3.374873 7.925882 0.688395 2.683222 -8.675047 0.687235 0.010398 0.255475 -0.015247
12.962900 88.845402 7.152621 45.238477 -8.538016 -1.853583 -0.563642 3.651293 1.308167 -0.342988 2.079542 0.758141 -0.424499 2.600120 0.945885 -0.342987 2.079542 0.758141 1.654490 20.424176 -2.685841 2.384502 -3.983848 -3.252316 -0.985366 -0.265793 -3.235179 6.759669 -6.924899 89.256976 5.603140 3.468404 1.550233 0.209664 -4.076142 -1.476511 -5.072035 -0.073141 1.433651 7.671536 -2.492347 -88.898033 1.679599 -5.515494 2.634473 1.706630 -3.526085 1.331280 -5.681321 2.873723 -5.761456 -0.100683 15.195992 0.644003 3.320684 -8.749464 6.498523 -0.016714 -0.089604 0.368605 0.716667 8.593894 0.790941 -3.381789 7.850263 0.693768 2.685487 -8.580748 0.659840 0.010327 0.183162 -0.014281
12.964076 88.870201 7.216938 45.309347 -8.521075 -1.841384 -0.564091 3.629028 1.298375 -0.340040 2.068389 0.739837 -0.420939 2.586156 0.923026 -0.340039 2.068389 0.739837 1.539636 20.504070 -2.632981 2.249204 -3.897966 -3.169086 -1.003688 -0.274987 -3.230416 6.821868 -6.826145 89.337100 5.501019 3.581795 1.544061 0.173919 -4.048291 -1.438761 -5.075432 -0.080750 1.432485 7.740976 -2.517168 -88.797624 1.535302 -5.472978 2.543920 1.676668 -3.540747 1.346966 -5.851913 2.987447 -5.726149 -0.246817 15.003058 0.582456 3.400571 -8.580682 6.298729 -0.012822 -0.119547 0.426507 0.648937 8.642256 0.802178 -3.388699 7.767072 0.695287 2.686960 -8.519239 0.631946 0.010045 0.142105 -0.012648
12.964786 88.895128 7.282816 45.370670 -8.493936 -1.826137 -0.560805 3.599951 1.282652 -0.334866 2.053339 0.722865 -0.414596 2.567318 0.901849 -0.334866 2.053339 0.722865 1.426493 20.587467 -2.576574 2.115016 -3.807809 -3.082565 -1.016287 -0.282232 -3.225584 6.876423 -6.715180 89.407120 5.414235 3.693060 1.547224 0.136162 -4.019404 -1.403835 -5.079232 -0.086283 1.432388 7.801040 -2.548892 -88.700642 1.406311 -5.437026 2.459528 1.653620 -3.555098 1.363429 -6.026078 3.084806 -5.709755 -0.347348 14.826956 0.529916 3.488589 -8.425873 6.139764 -0.010275 -0.147580 0.448944 0.586778 8.688554 0.813765 -3.392685 7.669629 0.694707 2.689230 -8.453302 0.603078 0.009468 0.101996 -0.010477
